<?xml version="1.0" encoding="utf-8"?>
<!-- Generator: Adobe Illustrator 21.1.0, SVG Export Plug-In . SVG Version: 6.00 Build 0)  -->
<svg version="1.1" id="Capa_1" xmlns="http://www.w3.org/2000/svg" xmlns:xlink="http://www.w3.org/1999/xlink" x="0px" y="0px"
	 viewBox="0 0 36.7 37.6" style="enable-background:new 0 0 36.7 37.6;" xml:space="preserve">
<style type="text/css">
	.st0{fill:none;stroke:#000000;stroke-width:0.5669;stroke-miterlimit:10;}
	.st1{fill-rule:evenodd;clip-rule:evenodd;fill:#0B0C0D;}
	.st2{fill:#FFFFFF;}
</style>
<g>
	<path class="st0" d="M12.1,29.7c1.9,0.6,4.1,0.9,6.3,0.9c9.5,0,17.3-6.1,17.3-13.6S27.9,3.5,18.4,3.5S1.1,9.5,1.1,17.1
		c0,2.9,1.2,5.6,3.1,7.8l-0.8,9.3L12.1,29.7z"/>
	<g>
		<path class="st1" d="M20.1,5.9c0,0,0.1,0,0.2,0.1c0.1,0,0.1,0.4,0,0.5c0,0-0.2,0.1-0.2,0.1l0,4.2c0.1,0.8,2.3,1.3,2.3,4.1V30
			c0,0-1,0.8-3.6,0.8c-2.6,0-3.9-0.8-3.9-0.8V14.9c0-2.8,2.2-3.3,2.3-4.1l0-4.3c0,0-0.1,0-0.2-0.1c0,0,0-0.4,0-0.5
			c0,0,0.2-0.1,0.2-0.1V5c0,0,0.4-0.4,1.4-0.4c0,0,1.1,0,1.5,0.3C20.1,4.9,20.1,5.9,20.1,5.9z"/>
	</g>
	<g>
		<path class="st2" d="M17.4,21.1v-0.6c0-1.5,2.1-2,2.1-3.1c0-0.6-0.5-1-1.2-1c-0.9,0-1.3,0.6-1.7,0.8c-0.1,0.1-0.2,0.1-0.3,0
			l-0.7-0.7c-0.1-0.1-0.1-0.3,0-0.4c0,0,1-1.3,3-1.3c1.6,0,3,1.1,3,2.6c0,1.9-2.3,2.4-2.3,3.3v0.5c0,0.2-0.1,0.3-0.3,0.3h-1.2
			C17.6,21.4,17.4,21.3,17.4,21.1z M18.3,23.2c0.7,0,1.3,0.6,1.3,1.3s-0.6,1.3-1.3,1.3s-1.3-0.6-1.3-1.3S17.6,23.2,18.3,23.2z"/>
	</g>
</g>
</svg>
