<?xml version="1.0" encoding="utf-8"?>
<!-- Generator: Adobe Illustrator 21.1.0, SVG Export Plug-In . SVG Version: 6.00 Build 0)  -->
<svg version="1.1" id="Capa_1" xmlns="http://www.w3.org/2000/svg" xmlns:xlink="http://www.w3.org/1999/xlink" x="0px" y="0px"
	 viewBox="0 0 25 25.9" style="enable-background:new 0 0 25 25.9;" xml:space="preserve">
<style type="text/css">
	.st0{fill:#FFFFFF;}
</style>
<g transform="translate(0,-952.36218)">
	<path class="st0" d="M12.5,954c0.1,0,0.1,0,0.2,0l10,4c0.2,0.1,0.3,0.3,0.3,0.5V972c0,0.2-0.1,0.4-0.3,0.5l-10,4
		c-0.1,0-0.3,0-0.4,0l-10-4C2.1,972.4,2,972.2,2,972v-13.5c0-0.2,0.1-0.4,0.3-0.5l10-4C12.4,954,12.5,954,12.5,954L12.5,954z
		 M12.5,955.1l-8.6,3.5l3.2,1.3l8.2-3.6L12.5,955.1z M17.4,957L9,960.6l3.5,1.4l8.6-3.5L17.4,957z M22,959.3l-9,3.6v12.4l9-3.6
		V959.3L22,959.3z M3,959.3v12.4l9,3.6v-12.4l-3.5-1.4v3.8l-2-0.8v-3.9L3,959.3L3,959.3z"/>
</g>
<g>
</g>
<g>
</g>
<g>
</g>
<g>
</g>
<g>
</g>
<g>
</g>
<g>
</g>
<g>
</g>
<g>
</g>
<g>
</g>
<g>
</g>
<g>
</g>
<g>
</g>
<g>
</g>
<g>
</g>
</svg>
