<?xml version="1.0" encoding="utf-8"?>
<!-- Generator: Adobe Illustrator 21.1.0, SVG Export Plug-In . SVG Version: 6.00 Build 0)  -->
<svg version="1.1" id="Capa_1" xmlns="http://www.w3.org/2000/svg" xmlns:xlink="http://www.w3.org/1999/xlink" x="0px" y="0px"
	 viewBox="0 0 36.7 37.6" style="enable-background:new 0 0 36.7 37.6;" xml:space="preserve">
<style type="text/css">
	.st0{fill-rule:evenodd;clip-rule:evenodd;fill:#0B0C0D;}
	.st1{fill-rule:evenodd;clip-rule:evenodd;fill:none;stroke:#0B0C0D;stroke-width:0.5669;stroke-miterlimit:10;}
</style>
<g>
	<g>
		<g>
			<path d="M26.3,17.6h-5.9l-2.4-5.5c-0.2-0.4-0.5-0.7-0.9-0.7c-0.2,0-4.1-0.7-4.2-0.7c-0.8-0.1-1.6,0.6-1.1,1.7l2.2,5.2H8.9
				c-1,0-1.4,0.7-1.2,1.5l1.8,7.7c0.1,0.6,0.6,1,1.2,1h13.9c0.6,0,1.1-0.4,1.2-1l1.8-7.7l0,0C27.7,18.6,27.6,17.6,26.3,17.6z
				 M21.9,18.8h2.4l-0.8,3.7h-2L21.9,18.8z M12.7,12c0,0-0.1-0.2,0.1-0.2c0.3,0,4,0.7,4,0.7c0,0,0.1,0,0.1,0.1l2.2,5.1H15L12.7,12z
				 M13.2,18.8l0.5,3.7h-2l-0.8-3.7H13.2z M8.7,18.8h1.4l0.8,3.7H9.5L8.7,18.8z M10.6,26.8c-0.1,0-0.1,0-0.1-0.1l-0.8-3.4h1.4
				l0.8,3.5L10.6,26.8L10.6,26.8z M12.7,26.8l-0.8-3.5h1.9l0.5,3.5H12.7z M17.2,26.8h-2.1l-0.5-3.5h2.6V26.8z M17.2,22.5h-2.7
				L14,18.8h0.6l0.7,1.7c0.1,0.2,0.4,0.3,0.5,0.2c0.2-0.1,0.3-0.3,0.2-0.5l-0.6-1.4h1.8L17.2,22.5L17.2,22.5z M20.1,26.8H18v-3.5
				h2.6L20.1,26.8z M18,22.5v-3.7l3.2,0l-0.5,3.7H18z M20.9,26.8l0.5-3.5h1.9l-0.8,3.5H20.9z M24.7,26.7c0,0.1-0.1,0.1-0.1,0.1h-1.3
				l0.8-3.5h1.4L24.7,26.7z M25.6,22.5h-1.4l0.8-3.7h1.4L25.6,22.5z"/>
		</g>
		<g>
			<path class="st0" d="M25.5,14.4C25.5,14.4,25.5,14.4,25.5,14.4c0.1,0.1,0.1,0.3,0,0.3c0,0-0.1,0-0.1,0L25.1,17
				c0,0.4,1,0.9,0.7,2.4l-1.3,8.1c0,0-0.5,0.4-1.8,0.2C21.5,27.5,21,27,21,27l1.3-8.1c0.2-1.5,1.3-1.6,1.4-2l0.4-2.3
				c0,0-0.1,0-0.1,0c0,0,0-0.2,0-0.2c0,0,0.1,0,0.1,0l0.1-0.5c0,0,0.2-0.2,0.7-0.1c0,0,0.5,0.1,0.7,0.3
				C25.6,13.8,25.5,14.4,25.5,14.4z"/>
		</g>
		<g>
			<path class="st0" d="M22,14.2C22,14.2,22,14.2,22,14.2c0.1,0.1,0.1,0.3,0.1,0.3c0,0-0.1,0-0.1,0l0.2,2.3c0.1,0.4,1.2,0.6,1.3,2.2
				l0.6,8.2c0,0-0.4,0.5-1.7,0.6c-1.2,0.1-1.9-0.3-1.9-0.3l-0.6-8.2c-0.1-1.5,0.9-1.9,0.9-2.3l-0.2-2.3c0,0,0,0-0.1,0
				c0,0,0-0.2,0-0.2c0,0,0.1,0,0.1,0l0-0.6c0,0,0.1-0.2,0.6-0.3c0,0,0.5,0,0.7,0.1C21.9,13.6,22,14.2,22,14.2z"/>
		</g>
	</g>
	<circle class="st1" cx="18.3" cy="18.8" r="17.5"/>
</g>
<g>
</g>
<g>
</g>
<g>
</g>
<g>
</g>
<g>
</g>
<g>
</g>
<g>
</g>
<g>
</g>
<g>
</g>
<g>
</g>
<g>
</g>
<g>
</g>
<g>
</g>
<g>
</g>
<g>
</g>
</svg>
