<?xml version="1.0" encoding="utf-8"?>
<!-- Generator: Adobe Illustrator 24.0.0, SVG Export Plug-In . SVG Version: 6.00 Build 0)  -->
<svg version="1.1" id="Capa_1" xmlns="http://www.w3.org/2000/svg" xmlns:xlink="http://www.w3.org/1999/xlink" x="0px" y="0px"
	 viewBox="0 0 100 86" style="enable-background:new 0 0 100 86;" xml:space="preserve">
<style type="text/css">
	.st0{fill:#FFFFFF;}
</style>
<g>
	<g>
		<path class="st0" d="M9.2,83c0.4,0,2.5-0.6,3.8-2.2c1.5-1.8,0.4-6.4-0.2-9.5c-0.6-3.1-1.5-10.3-2-15.2c-0.5-4.9-0.4-18.3-0.3-21.2
			c0.1-3.1,0.5-2.7,1.2-4.1c0.7-1.4,2.5-2.4,3-5.6s-0.4-10.4-1.1-17.4c-0.7-7-0.6,13.6-0.7,14.5c-0.2,1-1.4,0.8-1.5,0
			c-0.1-0.8-0.6-12.8-1.1-16.6C9.8,1.9,10,21.5,10,22.3c0,0.8-0.6,0.7-0.7,0.7l0,0c-0.1,0-0.7,0.1-0.7-0.7c-0.1-0.9-0.3-20.7-1-16.5
			C7.4,9.6,7.1,21.5,7,22.2c-0.1,0.8-1.4,1-1.5,0c-0.2-1-0.1-21.5-0.8-14.5c-0.6,7.1-1.4,14.3-1,17.4c0.5,3.2,2.3,4.1,3,5.6
			c0.7,1.4,1.1,1.2,1.2,4.1C8,37.9,8,51.2,7.6,56.1c-0.5,4.9-1.4,12.1-2,15.2s-1.6,7.6-0.2,9.5C6.7,82.4,8.8,83,9.2,83L9.2,83z"/>
	</g>
	<g>
		<path class="st0" d="M89.2,10.5c0,0,1.3-2.5,2.1-3c0.9-0.5,2.1-0.9,2.3,1.4c0.1,2.3,0.7,28.3,0.7,29.8c-0.1,1.5-0.3,5.6-0.5,7.7
			c-0.2,2.2-0.3,3.3,0.3,10.7c0.7,7.4,2,16.7,1,20c0,0-0.7,3-3.3,3c-2.6,0-3-2.2-3.3-4.3c0,0-0.4-4.7,0.1-14.4s0.8-11.4,0.7-13.2
			c-0.1-1.8-0.8-6.2-1.1-8.4c-0.3-2.3-0.7-9.8-0.6-16.2C87.6,17.1,88.3,12.7,89.2,10.5z"/>
	</g>
	<path class="st0" d="M50.8,13c-46.3,2.8-42.2,66,0,67C97.1,77.2,93,14,50.8,13z M50.8,70.4c-33.1-2-30-47.1,0-47.8
		C83.9,24.6,80.7,69.6,50.8,70.4z"/>
	<path class="st0" d="M50.8,24.7c-30.3,2-27.1,42.9,0,43.6C81.1,66.3,77.9,25.3,50.8,24.7z M50,47.8v-1.1h-1.1V27.6H51v18.1h18.1
		v2.1H50z"/>
</g>
</svg>
