<?xml version="1.0" encoding="utf-8"?>
<!-- Generator: Adobe Illustrator 21.1.0, SVG Export Plug-In . SVG Version: 6.00 Build 0)  -->
<svg version="1.1" id="Capa_1" xmlns="http://www.w3.org/2000/svg" xmlns:xlink="http://www.w3.org/1999/xlink" x="0px" y="0px"
	 viewBox="0 0 25 25.9" style="enable-background:new 0 0 25 25.9;" xml:space="preserve">
<style type="text/css">
	.st0{fill:#FFFFFF;}
</style>
<g>
	<path class="st0" d="M12.5,1.8c-5.3,0-9.7,4.2-9.7,9.3c0,6.9,8.8,12.6,9.2,12.8c0.3,0.2,0.7,0.2,1,0c0.4-0.2,9.2-5.9,9.2-12.8
		C22.2,6,17.8,1.8,12.5,1.8z M12.5,22c-1.8-1.3-7.8-5.9-7.8-10.9c0-4.1,3.5-7.4,7.8-7.4s7.8,3.3,7.8,7.4
		C20.3,16.1,14.3,20.7,12.5,22L12.5,22z"/>
	<path class="st0" d="M12.5,6C10,6,8,8,8,10.5s2,4.5,4.5,4.5s4.5-2,4.5-4.5l0,0C17,8,15,6,12.5,6z M12.5,13.1
		c-1.4,0-2.6-1.2-2.6-2.6c0-1.4,1.2-2.6,2.6-2.6c1.4,0,2.6,1.2,2.6,2.6C15.1,11.9,13.9,13.1,12.5,13.1z"/>
</g>
<g>
</g>
<g>
</g>
<g>
</g>
<g>
</g>
<g>
</g>
<g>
</g>
<g>
</g>
<g>
</g>
<g>
</g>
<g>
</g>
<g>
</g>
<g>
</g>
<g>
</g>
<g>
</g>
<g>
</g>
</svg>
