<?xml version="1.0" encoding="utf-8"?>
<!-- Generator: Adobe Illustrator 21.1.0, SVG Export Plug-In . SVG Version: 6.00 Build 0)  -->
<svg version="1.1" id="Capa_1" xmlns="http://www.w3.org/2000/svg" xmlns:xlink="http://www.w3.org/1999/xlink" x="0px" y="0px"
	 viewBox="0 0 25 25.9" style="enable-background:new 0 0 25 25.9;" xml:space="preserve">
<style type="text/css">
	.st0{fill:#FFFFFF;}
</style>
<g>
	<path class="st0" d="M23.3,18.4c0.8,0.6,0.9,1.8,0.2,2.5L21,23.4c-2.6,2.6-10.1,0-14.6-4.4C2,14.5-0.5,7,2,4.4l2.5-2.5
		C5.2,1.2,6.4,1.3,7,2.1l2.9,3.7c0.6,0.8,0.5,2-0.2,2.7l-1.6,1.6c-0.4,0.4-0.5,1.1-0.2,1.7c0,0,0.1,0.1,0.1,0.2
		c0.1,0.2,0.3,0.4,0.4,0.7c0.5,0.8,1.1,1.5,1.9,2.3c0.8,0.8,1.5,1.4,2.3,1.9c0.3,0.2,0.5,0.3,0.7,0.4c0.1,0.1,0.2,0.1,0.3,0.2
		c0.5,0.3,1.2,0.2,1.6-0.2l1.6-1.6c0.7-0.7,1.9-0.8,2.7-0.2L23.3,18.4z M22.8,19.1l-3.7-2.9c-0.4-0.3-1.1-0.3-1.5,0.1L16,18
		c-0.7,0.7-1.9,0.9-2.7,0.4c-0.1,0-0.2-0.1-0.3-0.2c-0.2-0.1-0.5-0.3-0.8-0.5c-0.8-0.5-1.6-1.2-2.4-2c-0.8-0.8-1.5-1.6-2-2.4
		c-0.2-0.3-0.3-0.5-0.5-0.8c-0.1-0.1-0.1-0.2-0.1-0.3c-0.5-0.8-0.3-2.1,0.4-2.8l1.6-1.6c0.4-0.4,0.4-1,0.1-1.5L6.3,2.7
		C6,2.3,5.5,2.3,5.1,2.6L2.7,5.1C0.6,7.1,3,14.2,7.1,18.3c4.1,4.1,11.2,6.5,13.3,4.4l2.5-2.5C23.2,19.9,23.1,19.4,22.8,19.1z"/>
</g>
<g>
</g>
<g>
</g>
<g>
</g>
<g>
</g>
<g>
</g>
<g>
</g>
<g>
</g>
<g>
</g>
<g>
</g>
<g>
</g>
<g>
</g>
<g>
</g>
<g>
</g>
<g>
</g>
<g>
</g>
</svg>
